<svg width="22" height="23" viewBox="0 0 22 23" fill="none" xmlns="http://www.w3.org/2000/svg">
<path fill-rule="evenodd" clip-rule="evenodd" d="M9.464 0.485333C10.3268 -0.161778 11.5132 -0.161778 12.376 0.485333L20.8693 6.85533C21.4804 7.31362 21.84 8.03286 21.84 8.79667V20.3233C21.84 21.6635 20.7535 22.75 19.4133 22.75H13.468C12.7309 22.75 12.1333 22.1524 12.1333 21.4153V14.2567C12.1333 13.5866 11.5901 13.0433 10.92 13.0433C10.2499 13.0433 9.70667 13.5866 9.70667 14.2567V21.4153C9.70667 22.1525 9.10911 22.75 8.372 22.75H2.42667C1.08646 22.75 0 21.6635 0 20.3233V8.79667C0 8.03286 0.359618 7.31362 0.970667 6.85533L9.464 0.485333ZM10.92 2.42667L2.42667 8.79667V20.3233H7.28V14.2567C7.28 12.2464 8.90968 10.6167 10.92 10.6167C12.9303 10.6167 14.56 12.2464 14.56 14.2567V20.3233H19.4133V8.79667L10.92 2.42667Z" fill="#09244B"/>
</svg>
